<svg xmlns="http://www.w3.org/2000/svg" version="1.1" id="Contours" x="0px" y="0px" width="599.495361px" height="599.495361px" viewBox="-0.000000 -0.000008 599.495361 990.392517" enable-background="new 0 0 599.495361 599.495361" xml:space="preserve" stroke="black" fill="none" stroke-linecap="round" stroke-linejoin="round"><defs><linearGradient id="grad1" x1="0%" y1="0%" x2="0%" y2="100%"><stop offset="0%" style="stop-color:#2ecc71;stop-opacity:1" /><stop offset="100%" style="stop-color:#145a32;stop-opacity:1" /></linearGradient></defs><path class="selected" fill="url(#grad1)" opacity="1.000000" stroke="none" d=" M231.668432 749.252146 C242.423637 743.360967 253.178841 737.469788 263.934046 731.578610 C327.995393 696.488923 393.400333 660.347617 441.969013 605.792823 C498.826641 541.927453 528.151130 456.636984 534.104484 371.336734 C540.057837 286.036484 523.962057 200.440459 498.626496 118.772324 C537.747336 215.370942 548.879597 323.118115 530.335139 425.674618 C523.501234 463.468195 512.643978 500.759905 495.164150 534.958039 C468.891031 586.359667 428.239546 629.477591 382.092415 664.159668 C335.945284 698.841745 284.282910 725.500917 231.668432 749.252147 z" /><path class="selected" fill="url(#grad1)" opacity="1.000000" stroke="none" d=" M136.560434 795.259377 C126.749357 703.651431 150.589173 608.814030 202.552747 532.734729 C209.068398 523.195236 218.232441 512.896950 229.715391 514.160871 C261.689983 517.680296 293.345722 488.920938 292.901218 456.756309 C292.456714 424.591681 260.018327 396.718082 228.153202 401.119749 C196.288076 405.521416 172.620847 441.145126 180.912685 472.225768 C186.320436 492.495872 171.231983 511.806683 158.831628 528.728623 C122.924692 577.728379 102.576712 637.955420 101.408750 698.691899 C52.752283 607.589933 63.157607 488.201656 126.840782 406.890688 C179.357394 339.837238 259.619554 302.091494 330.867285 255.423298 C392.299303 215.184522 448.503119 166.973813 497.623683 112.382402 C456.667051 163.451827 408.011462 208.335641 353.810225 245.047461 C278.931612 295.764571 191.757428 332.553310 134.578603 402.621947 C69.893338 481.889197 55.633871 598.970275 99.402289 691.446250 C102.377837 616.960042 132.886911 543.884172 183.758603 489.394538 C165.161709 458.758929 181.269044 412.918615 214.941779 400.649468 C248.614514 388.380322 290.436260 413.113340 295.907057 448.531632 C301.377854 483.949924 268.967825 520.148966 233.162498 518.611573 C216.792664 517.908693 204.574968 533.055339 196.142166 547.103590 C150.201368 623.636621 129.865963 715.246627 139.110262 804.029535 C101.613391 765.213778 64.178320 725.349837 38.293458 677.993188 C-7.965238 593.362377 -12.630490 487.217980 26.024795 398.855035 C76.571127 283.310093 189.842529 209.025586 301.680920 150.735453 C379.990024 109.920773 463.895590 70.918379 516.514382 0.000000 C571.296831 111.211559 604.756766 234.799548 598.815527 358.629388 C592.874288 482.459228 545.188053 606.333049 456.175976 692.623128 C409.659054 737.717558 353.424186 771.574367 295.587425 800.767531 C273.090518 812.122867 248.963652 824.006249 236.196571 845.733102 C220.288547 872.805169 226.562226 906.685552 228.081150 938.048825 C228.666441 950.134116 228.344688 962.771027 222.805197 973.527925 C217.265706 984.284823 205.128422 992.508135 193.311458 989.908871 C174.184447 985.701686 170.504230 960.384801 171.015591 940.807226 C173.102385 860.913827 175.208963 780.785371 186.963861 701.733918 C191.034984 674.355700 196.488446 646.517762 210.528430 622.663628 C233.371406 583.853083 275.384143 561.016712 306.814181 528.764384 C338.863363 495.876714 359.858974 452.398863 365.687491 406.849140 C366.793406 398.206442 367.024048 388.413360 361.170054 381.959677 C337.647676 356.027650 342.682913 309.799345 371.236559 289.539494 C399.790204 269.279643 445.087344 279.795295 461.795145 310.562511 C478.502946 341.329728 462.657154 385.048381 430.116047 397.965369 C406.532966 407.326525 403.756849 438.582884 399.319030 463.564852 C393.333769 497.257890 377.346644 529.110231 353.906980 554.042666 C317.214910 593.071494 261.523047 617.628140 243.217110 667.971462 C233.751590 694.002678 236.178492 723.088626 227.491874 749.390012 C230.839644 696.962377 238.927395 636.294154 283.865309 609.082974 C356.240372 565.257822 404.456157 483.953426 408.197456 399.426530 C444.791499 398.747673 474.333972 357.168310 462.933346 322.388853 C451.532721 287.609396 403.108621 271.587296 373.213835 292.703323 C343.319049 313.819351 342.231637 364.813651 371.199094 387.184867 C368.553914 443.923541 343.351948 499.301453 302.307441 538.564954 C273.989654 565.653972 238.186368 585.763146 216.808319 618.606577 C199.798119 644.739614 193.709909 676.349032 189.393166 707.230228 C178.432628 785.639942 176.626767 865.005183 174.837578 944.157032 C174.471589 960.347996 176.873750 980.737642 192.240626 985.850407 C205.871965 990.385735 220.191967 977.891906 223.826229 963.993174 C227.460490 950.094443 223.877693 935.491474 221.889245 921.263731 C217.655972 890.973876 221.574223 857.888552 240.814405 834.114380 C256.223730 815.073825 279.321501 804.312484 301.234042 793.365777 C359.078070 764.469009 414.665371 729.627747 460.198556 683.718228 C545.288962 597.924546 590.126085 476.892390 595.237282 356.166218 C600.348478 235.440046 567.924656 115.137456 515.387472 6.322121 C481.437825 56.274231 427.248380 88.161883 374.033105 116.726306 C308.830940 151.724945 242.053309 184.402716 181.491711 226.929414 C120.930114 269.456111 66.131780 322.963083 34.057869 389.652597 C-9.861800 480.972344 -5.929046 593.743808 44.245497 681.782145 C68.461398 724.272372 102.184299 760.472732 136.560434 795.259376 z" /><path class="selected" fill="url(#grad1)" opacity="1.000000" stroke="none" d=" M416.690657 362.642307 C404.963311 366.542452 390.834654 361.008209 384.876259 350.180500 C378.917864 339.352790 381.803385 324.455792 391.373771 316.635979 C394.342097 314.210607 397.839019 312.435610 401.548909 311.471197 C414.790412 308.028972 429.983503 316.615074 433.865559 329.734371 C437.747615 342.853668 429.673145 358.324742 416.690659 362.642307 M426.328315 350.039748 C430.435065 343.519813 430.957664 334.888849 427.667588 327.921041 C425.118568 322.522661 420.387246 318.193748 414.784140 316.133358 C403.964739 312.154817 390.538646 317.800742 385.814082 328.315813 C381.089517 338.830885 385.783832 352.618555 395.943207 358.066062 C406.102582 363.513570 420.184475 359.793797 426.328315 350.039748 z" /><path class="selected" fill="url(#grad1)" opacity="1.000000" stroke="none" d=" M239.680786 432.218765 C251.663448 434.133981 261.470932 445.338350 261.783071 457.469088 C262.095210 469.599826 252.876926 481.293751 241.008618 483.822682 C229.140310 486.351613 215.955668 479.431364 211.295524 468.227110 C206.635380 457.022857 211.023414 442.793669 221.184459 436.160012 C226.584339 432.634691 233.312845 431.200962 239.680786 432.218765 M221.306129 475.935726 C224.867263 478.767070 229.293484 480.494919 233.831019 480.825022 C244.593621 481.607997 255.324369 473.653649 257.704540 463.128373 C260.084711 452.603097 253.820625 440.805562 243.768346 436.881489 C233.716067 432.957417 221.115904 437.390982 215.735794 446.745182 C210.355684 456.099383 212.859456 469.220044 221.306128 475.935725 z" /></svg>