<?xml version="1.0" encoding="utf-8"?><!DOCTYPE svg PUBLIC "-//W3C//DTD SVG 1.1//EN" "http://www.w3.org/Graphics/SVG/1.1/DTD/svg11.dtd"><svg version="1.1" id="Contours" xmlns="http://www.w3.org/2000/svg" xmlns:xlink="http://www.w3.org/1999/xlink" x="0px" y="0px" width="1985.309448px" height="1985.309448px" viewBox="-0.000000 -0.000010 1985.309448 990.720764" enable-background="new 0 0 1985.309448 1985.309448" xml:space="preserve" stroke="black" fill="none" stroke-linecap='round' stroke-linejoin='round'><path class="selected"  fill="#000000" opacity="1.000000" stroke="none" 
 	d="
M470.321182 343.329814 C469.344315 355.823771 464.974136 366.574931 457.911148 376.175578 C448.096268 389.517008 434.760635 397.330424 418.531937 400.338664 C415.378006 400.923319 414.731339 402.874369 414.121353 406.046366 C412.392593 415.036540 409.080826 423.736979 407.553177 432.748271 C403.949173 454.007731 397.181534 474.347209 390.206680 494.599101 C384.140457 512.212565 375.535141 528.480998 362.251541 542.052226 C353.824966 550.661295 346.570511 560.432047 338.006027 568.887309 C330.570938 576.227702 322.048142 582.469279 313.978470 589.163127 C306.419601 595.433329 298.833359 601.670512 291.243179 607.902751 C282.044022 615.456339 272.648239 622.782939 263.675369 630.595866 C256.266861 637.046610 252.013870 645.788615 248.364029 654.710795 C243.222549 667.279460 241.298935 680.630900 239.293961 693.959025 C237.080002 708.676371 234.692520 723.368083 232.283463 738.055033 C231.884171 740.489359 230.940842 742.830546 230.355789 745.240824 C230.217270 745.811503 230.510880 746.487040 230.605759 747.114482 C231.174789 747.022441 231.829208 747.081767 232.300125 746.815898 C240.813705 742.010356 249.311539 737.176859 257.800278 732.327494 C275.725357 722.087382 293.647476 711.841960 311.562759 701.584757 C326.247696 693.176982 341.218735 685.220255 355.511734 676.191081 C368.569748 667.941935 381.476212 659.236064 393.379227 649.432170 C407.291519 637.973307 420.488968 625.545085 433.149979 612.702799 C442.173233 603.550273 450.046036 593.212504 457.974686 583.046794 C465.269363 573.694132 472.820023 564.362895 478.700516 554.127360 C487.303482 539.153117 494.856644 523.539530 502.194046 507.887614 C506.628006 498.429118 510.497452 488.581400 513.387283 478.553263 C517.612686 463.890910 520.924820 448.952983 524.259537 434.050395 C526.899368 422.252848 529.215164 410.370341 531.233231 398.450785 C532.385880 391.642924 532.951798 384.698466 533.256546 377.792338 C533.816361 365.107768 534.100174 352.407633 534.287247 339.710917 C534.450211 328.656718 534.579056 317.590556 534.253494 306.543620 C533.878250 293.811808 533.337662 281.064799 532.232193 268.379801 C530.867935 252.725016 528.440384 237.233073 525.642105 221.716227 C520.535843 193.401286 511.140701 166.385325 503.341263 138.880137 C501.485733 132.336527 499.036148 125.948832 497.442154 119.348734 C496.591324 115.825572 495.789444 116.101603 493.815506 118.327159 C485.812637 127.349925 478.097733 136.653849 469.702225 145.296122 C459.322403 155.981059 448.724747 166.510233 437.576553 176.378489 C424.559830 187.900767 410.839249 198.627482 397.439590 209.718150 C389.490494 216.297465 381.902542 223.370768 373.561050 229.404887 C361.092484 238.424418 348.301895 247.038188 335.295548 255.267069 C304.429153 274.795573 273.283493 293.882365 242.397476 313.380168 C227.946579 322.502848 213.517044 331.723429 199.679245 341.731181 C190.003830 348.728556 181.197464 356.967997 172.282852 364.964701 C164.541672 371.908793 156.778091 378.911234 149.774674 386.573649 C140.632889 396.575724 132.200028 407.228251 123.519028 417.648234 C115.344513 427.460307 107.721634 437.749858 102.774490 449.550334 C97.774918 461.475932 93.993347 473.906046 89.262955 485.952128 C83.437714 500.786357 80.530685 516.262553 78.352478 531.920390 C76.855927 542.678141 75.714050 553.484721 74.306473 564.255473 C72.451782 578.447489 74.449997 592.349528 77.334198 606.181437 C80.946747 623.506266 84.205048 640.923747 88.498291 658.080546 C90.879959 667.598246 95.045227 676.671244 98.462647 685.923991 C98.667892 686.479594 99.370865 686.851420 99.842255 687.308756 C100.335236 686.512980 101.170883 685.754984 101.263306 684.915141 C101.723358 680.733988 102.118866 676.537028 102.298569 672.335368 C103.090103 653.827860 105.253967 635.478251 110.448349 617.690165 C113.769714 606.316264 117.816299 595.086527 122.457230 584.183573 C127.525467 572.276774 132.974258 560.423686 139.495804 549.271525 C147.400345 535.754374 156.395615 522.852946 165.319565 509.962443 C170.672684 502.229838 176.834549 495.059611 182.488846 487.528422 C182.983261 486.869914 182.731125 485.235392 182.270828 484.339213 C177.165024 474.397135 174.696487 463.887919 175.335159 452.715434 C176.080093 439.684550 180.221268 427.796855 188.541824 417.717265 C197.568741 406.782084 208.755264 399.273722 222.958206 396.036967 C241.313767 391.853800 257.686569 395.963603 272.731705 406.343180 C285.517929 415.164347 293.618362 428.009989 296.681747 442.703654 C299.011612 453.878947 298.634506 465.941508 294.014786 477.154765 C284.886368 499.311625 268.891098 512.929972 244.905075 516.215922 C239.286972 516.985636 233.418137 516.830241 227.763931 516.204142 C220.578507 515.408427 217.877884 521.091654 214.476822 525.014201 C208.148300 532.313334 202.324509 540.143778 197.077713 548.261759 C191.359604 557.108988 186.414169 566.467814 181.362351 575.729350 C177.815506 582.231791 174.437973 588.845805 171.362717 595.582438 C162.875046 614.175639 155.177078 633.087870 151.372696 653.285563 C148.770401 667.100993 146.207291 680.951640 144.452347 694.890605 C142.835678 707.731425 142.072617 720.697672 141.382614 733.632670 C140.473373 750.678691 139.890244 767.744975 139.414475 784.809428 C139.277756 789.712382 140.084152 794.635966 140.255173 799.557108 C140.295120 800.706523 139.508102 801.884501 139.101578 803.049418 C138.276718 802.411479 137.317368 801.890116 136.646957 801.118022 C126.012375 788.870097 115.517441 776.499369 104.768112 764.353617 C98.888748 757.710429 92.176834 751.775370 86.580917 744.916728 C77.622940 733.937358 68.781204 722.795878 60.814056 711.093974 C52.314468 698.609843 44.286896 685.716837 37.167160 672.406474 C30.569809 660.072611 24.449616 647.293986 19.908264 634.095683 C13.514053 615.512370 8.310822 596.478434 3.447113 577.420573 C-1.682510 557.320719 0.408051 536.639384 0.490250 516.199259 C0.533508 505.443522 1.763321 494.606242 3.453461 483.963969 C5.916534 468.454753 8.455048 452.972758 12.014771 437.602519 C16.390289 418.709879 23.819153 401.015910 31.924225 383.819560 C39.983505 366.720500 51.064285 351.003398 61.276001 334.970622 C77.418655 309.626078 99.419098 289.397929 120.703018 268.633891 C129.974594 259.588847 139.753403 250.899577 150.169052 243.225749 C171.505417 227.506083 193.039993 211.987315 215.228714 197.513835 C233.691849 185.470622 253.012802 174.688975 272.322281 164.015147 C285.812912 156.557871 300.098282 150.550456 313.714462 143.304911 C329.181534 135.074473 344.289536 126.170146 359.570267 117.588358 C372.411972 110.376353 385.422440 103.451792 398.095657 95.956187 C413.794693 86.671000 429.079605 76.683573 444.810440 67.454814 C459.135269 59.050944 471.007401 47.821879 482.120194 35.814341 C490.061600 27.233531 496.916946 17.651957 504.345047 8.589213 C506.728409 5.681376 509.160355 2.714610 512.059586 0.383616 C513.033157 -0.399129 516.678909 0.115244 517.148636 1.035075 C524.726517 15.871684 532.350845 30.705515 539.224381 45.875346 C546.656937 62.278849 553.300552 79.039164 560.326736 95.627574 C568.396439 114.679637 574.804764 134.178294 578.458389 154.646159 C581.395889 171.102091 585.782730 187.293986 589.084610 203.692027 C591.239090 214.391886 592.936111 225.211161 594.231033 236.049418 C595.629532 247.753642 596.406876 259.535929 597.288406 271.296610 C597.801651 278.144694 598.127335 285.013957 598.293716 291.879557 C598.710281 309.071879 599.330460 326.270060 599.207962 343.461161 C599.117203 356.188456 598.077103 368.913859 597.288345 381.629496 C596.798233 389.530497 596.307938 397.455241 595.242996 405.291178 C593.796097 415.937296 592.279068 426.615824 589.936783 437.089274 C585.379349 457.467265 580.506485 477.785807 575.192886 497.978556 C572.847488 506.891520 569.175858 515.462626 565.987808 524.145365 C557.150467 548.214335 546.933304 571.707926 534.182327 593.944071 C526.404373 607.507975 518.131546 620.970561 508.515457 633.252909 C495.714554 649.603251 481.288223 664.673441 467.747879 680.454569 C453.230362 697.374430 435.882828 710.910380 417.678360 723.542216 C400.290482 735.607401 383.391800 748.391581 365.802658 760.148539 C351.693802 769.579081 337.170700 778.488871 322.284897 786.630473 C307.277542 794.838358 291.430100 801.495585 276.253952 809.413310 C258.588638 818.629618 243.814255 831.292460 234.478012 849.228739 C232.099228 853.798686 230.961075 859.307597 230.454361 864.502299 C229.067764 878.716288 227.828629 892.981181 227.492294 907.248515 C227.263565 916.950663 229.049484 926.684550 229.211105 936.416239 C229.375687 946.326518 229.250168 956.316874 228.172806 966.154032 C226.776962 978.899149 219.380386 984.519511 206.641251 986.184550 C196.407730 987.522074 186.612289 985.486308 178.465317 978.341532 C174.442368 974.813456 171.022171 971.230204 171.249954 965.174784 C171.802414 950.488627 171.943588 935.787211 172.337357 921.094462 C172.583847 911.897196 173.011093 902.705180 173.315140 893.509379 C173.674240 882.648905 173.970078 871.786234 174.326584 860.925639 C174.633896 851.563334 175.010696 842.203349 175.315231 832.840922 C175.673935 821.813822 175.847061 810.778544 176.362717 799.759135 C176.833756 789.693339 177.286819 779.602763 178.407639 769.596903 C180.073837 754.722148 182.092789 739.877055 184.379990 725.084025 C187.131363 707.289164 189.711960 689.431193 193.493607 671.842814 C197.230698 654.461527 200.378311 636.794535 209.198837 620.878886 C216.325150 608.020304 225.724625 597.243693 237.080124 587.994547 C243.008469 583.165873 248.470963 577.768595 254.342575 572.866068 C263.096756 565.556742 272.092178 558.536479 280.858200 551.240885 C286.482224 546.560343 291.740189 541.436930 297.403641 536.807292 C312.052322 524.832682 324.379593 510.772868 333.567856 494.330607 C339.940811 482.926249 345.444778 470.922709 350.141800 458.726542 C355.076004 445.914469 358.955399 432.655192 362.591263 419.398112 C365.117691 410.186259 366.608902 400.673686 368.177902 391.231547 C368.460251 389.532450 367.388229 386.962016 366.066116 385.744425 C355.104416 375.649699 347.599625 363.206889 345.650101 348.740641 C343.702621 334.289530 345.224777 319.776835 353.391892 306.611552 C362.143387 292.504313 374.011032 282.949076 389.926468 278.178935 C410.354935 272.056254 428.815018 275.928935 445.858597 288.333903 C459.977737 298.610514 466.812637 313.183940 470.191116 329.652873 C471.057510 333.876322 470.321182 338.428629 470.321182 343.329814 M389.821182 321.329814 C388.987808 322.978922 387.844620 324.546366 387.383987 326.293681 C386.341385 330.249003 384.306900 334.552897 385.030960 338.254252 C387.640274 351.592204 397.843582 359.539286 411.961624 357.374308 C424.729813 355.416361 433.373795 340.697001 428.476944 327.761393 C422.383682 311.665202 401.583145 308.200053 389.821182 321.329814 M234.821182 434.329814 C222.765213 434.416606 213.666489 444.547160 214.455368 458.070963 C214.961441 466.745890 217.482620 472.931315 231.473770 477.990946 C235.960159 479.613322 249.069321 475.788676 252.494186 471.621684 C258.877792 463.854899 260.534256 454.883708 256.123367 446.027567 C252.217453 438.185282 245.245743 433.616618 234.821182 434.329814 z"/><path class="selected"  fill="#000000" opacity="1.000000" stroke="none" 
 	d="
M1349.321182 977.329814 C1349.523819 985.308817 1349.054092 984.340556 1342.945328 984.333842 C1330.614883 984.320414 1318.282730 984.210429 1305.954483 984.372782 C1298.038345 984.477274 1299.314224 983.918437 1299.378555 977.087260 C1299.432144 971.390849 1300.065811 965.702250 1300.303604 960.004374 C1300.701187 950.480692 1301.283218 940.951274 1301.249405 931.426249 C1301.203018 918.342631 1300.439468 905.261454 1300.392960 892.177836 C1300.359146 882.652812 1300.825577 873.115946 1301.379776 863.602397 C1301.733658 857.528422 1302.722427 851.493510 1303.253067 845.425761 C1303.339859 844.434184 1302.527847 843.363871 1302.131241 842.329814 C1301.527847 843.352397 1300.658829 844.303935 1300.363419 845.408793 C1298.033951 854.119486 1296.362930 863.046610 1293.461807 871.556742 C1283.113663 901.910624 1272.279434 932.098368 1261.828262 962.417582 C1259.857681 968.134013 1258.852188 974.178935 1257.297257 980.044657 C1256.618301 982.606303 1255.631851 984.498026 1252.135391 984.426249 C1239.976700 984.176737 1227.802994 984.110697 1215.650040 984.472880 C1212.307999 984.572489 1211.081192 982.841166 1210.398941 980.667216 C1206.090958 966.939921 1202.371597 953.019145 1197.771988 939.393900 C1190.919937 919.095927 1183.240372 899.076762 1176.426773 878.766459 C1172.830093 868.045390 1170.356461 856.949442 1167.263687 846.054545 C1166.972549 845.029032 1165.875015 844.232646 1165.151871 843.329814 C1164.875015 844.316996 1164.322891 845.315165 1164.362320 846.289530 C1164.969986 861.345561 1165.751724 876.395121 1166.278702 891.453593 C1166.527359 898.557597 1166.191544 905.680399 1166.359268 912.789164 C1166.514664 919.377421 1167.191299 925.955668 1167.276993 932.543070 C1167.432877 944.538188 1167.236588 956.537943 1167.367081 968.533671 C1167.412735 972.731059 1167.915909 976.930155 1168.348648 981.114115 C1168.602676 983.571147 1167.983048 984.438090 1165.241715 984.406596 C1150.913467 984.242167 1136.580582 984.197489 1122.253677 984.412821 C1118.103775 984.475077 1118.081192 982.201518 1118.335709 979.385722 C1118.958633 972.492777 1120.210342 965.608500 1120.232559 958.717509 C1120.396378 907.729838 1120.424088 856.740946 1120.230850 805.753520 C1120.194107 796.029521 1119.089005 786.301615 1118.272720 776.592631 C1117.932144 772.540629 1119.130020 771.169535 1123.440323 771.224223 C1142.599503 771.467631 1161.765396 771.473368 1180.923965 771.209452 C1184.786636 771.156352 1186.976090 772.561869 1187.231705 775.903300 C1188.392715 791.078105 1194.956314 804.700663 1199.528458 818.842265 C1207.306412 842.898905 1216.025406 866.650858 1224.311173 890.543925 C1227.040909 898.415385 1229.626968 906.336772 1232.362442 914.206278 C1232.644058 915.016459 1233.500259 915.626689 1234.089859 916.329814 C1234.500259 915.642802 1235.049332 915.003031 1235.301041 914.262065 C1242.992325 891.618754 1250.643082 868.961649 1258.325211 846.315165 C1263.726822 830.391581 1269.382340 814.549906 1274.493179 798.533915 C1276.949966 790.835063 1278.211807 782.759989 1280.489029 774.994364 C1280.942276 773.448344 1283.540665 771.505595 1285.170548 771.486186 C1305.329727 771.246440 1325.493179 771.401225 1345.654312 771.266947 C1349.492325 771.241435 1349.550430 773.395732 1349.308975 776.039164 C1348.678970 782.931376 1347.430557 789.816264 1347.409683 796.707133 C1347.248673 849.694316 1347.247086 902.682597 1347.409805 955.669779 C1347.431534 962.724955 1348.654556 969.776591 1349.321182 977.329814 z"/><path class="selected"  fill="#000000" opacity="1.000000" stroke="none" 
 	d="
M1548.321182 909.329814 C1547.649429 894.770732 1549.271866 880.992777 1554.372086 867.845072 C1562.900650 845.858744 1578.274674 831.130229 1601.455093 825.419169 C1607.894669 823.832621 1614.596329 822.530131 1621.186539 822.487528 C1637.512955 822.381938 1652.914932 826.386576 1666.764175 835.367777 C1668.915787 836.763163 1670.677383 838.750712 1672.771011 840.252787 C1673.169693 840.538920 1674.971939 839.821147 1674.969620 839.577494 C1674.830215 824.682963 1674.727310 809.784648 1674.243179 794.898905 C1674.051163 788.994364 1673.108658 783.101176 1672.282974 777.234477 C1671.625015 772.559550 1673.244644 770.343974 1677.883804 770.337382 C1692.213760 770.316874 1706.543716 770.330668 1720.873673 770.329081 C1724.000504 770.328715 1726.552383 770.089823 1724.518692 774.927836 C1723.148941 778.186503 1723.367813 782.233256 1723.364029 785.927836 C1723.303360 845.247294 1723.275650 904.566752 1723.399429 963.885966 C1723.410416 969.136698 1724.380386 974.407206 1725.181046 979.626200 C1725.646256 982.658793 1724.370987 983.370463 1721.719864 983.352519 C1712.888931 983.292704 1704.055313 983.212382 1695.226944 983.373271 C1689.804947 983.472025 1684.392593 984.035502 1678.972183 984.315287 C1675.672257 984.485575 1674.280289 982.742289 1674.295548 979.518900 C1674.308121 976.843241 1674.094864 974.166483 1673.981583 971.490214 C1671.665543 973.032816 1669.410538 974.677836 1667.022598 976.099589 C1657.752090 981.618022 1648.168228 986.039652 1637.199844 987.441874 C1622.137833 989.367411 1607.435928 988.682231 1593.200211 983.281108 C1579.651016 978.140360 1568.872818 969.627299 1561.226822 956.992045 C1554.447281 945.788920 1550.519302 933.854594 1549.322403 920.914897 C1548.980728 917.220561 1548.654434 913.524882 1548.321182 909.329814 M1640.321182 862.829814 C1621.826431 859.749613 1606.684952 869.950907 1601.276993 886.412089 C1597.992325 896.410136 1597.501236 906.442484 1599.275284 916.757548 C1600.777359 925.490824 1603.752701 933.755717 1610.321304 939.598612 C1625.382950 952.996317 1648.891007 951.675639 1662.224014 936.711527 C1676.227188 920.995219 1677.423355 895.957743 1666.229019 878.858988 C1660.326920 869.843852 1651.772476 864.445292 1640.321182 862.829814 z"/><path class="selected"  fill="#000000" opacity="1.000000" stroke="none" 
 	d="
M567.321182 843.329814 C567.255692 864.774027 560.465714 882.952372 544.279007 896.697978 C535.416458 904.223979 524.852371 908.924784 513.394424 911.320414 C494.311111 915.310404 474.951614 914.172221 455.664017 914.326640 C447.820023 914.389262 448.279434 913.246073 448.313126 921.859721 C448.349014 931.022318 448.061722 940.194682 448.391373 949.345439 C448.747940 959.242899 449.552322 969.128886 450.360794 979.003398 C450.819656 984.608012 450.357376 985.328349 444.770279 985.329081 C429.943253 985.331034 415.116165 985.335673 400.289139 985.326396 C395.425003 985.323466 394.649796 984.177958 395.273880 979.417094 C396.129776 972.887553 397.213028 966.316508 397.232864 959.760233 C397.391190 907.449565 397.413895 855.137797 397.231339 802.827372 C397.200333 793.938456 396.039627 785.049296 395.295181 776.169291 C395.004532 772.702983 395.904923 771.190409 399.860123 771.246317 C433.705643 771.725199 467.582840 771.269755 501.390213 772.613627 C520.420120 773.370219 538.284317 779.484477 551.759598 794.307963 C560.118301 803.503275 564.880753 814.436137 566.275772 826.754862 C566.879288 832.084208 566.987808 837.469828 567.321182 843.329814 M449.821182 869.329814 C450.348404 869.663188 450.881546 870.296366 451.401993 870.286112 C465.569046 870.007548 479.767410 870.131693 493.887711 869.144877 C501.695023 868.599101 507.644669 863.867045 511.346268 856.661601 C514.072281 851.355082 514.739883 845.723612 514.296585 839.930033 C513.117752 824.526713 504.721756 817.304911 491.081558 816.492411 C478.319778 815.732279 465.475662 816.435771 452.670975 816.260966 C449.134110 816.212748 448.210648 817.433329 448.249649 820.844096 C448.417313 835.478861 448.294815 850.116679 448.364700 864.753031 C448.371170 866.113505 448.987869 867.470927 449.821182 869.329814 z"/><path class="selected"  fill="#000000" opacity="1.000000" stroke="none" 
 	d="
M582.321182 940.329814 C582.656570 920.504740 591.398209 906.368266 608.602432 897.574809 C621.270584 891.099833 634.702225 887.236308 648.941116 886.328959 C659.331558 885.666972 669.723648 885.029276 680.109879 884.306498 C682.649307 884.129862 685.256180 883.946513 687.657791 883.203349 C688.762466 882.861430 690.182510 881.177470 690.208267 880.072856 C690.492081 867.901713 687.040848 862.881571 673.450211 860.652567 C664.488174 859.182475 654.551712 858.867411 646.645462 865.414530 C643.550064 867.977885 641.339737 871.585307 638.529434 874.529399 C637.391617 875.721293 635.641129 877.310404 634.318192 877.182353 C626.397293 876.415629 618.510208 875.265971 610.630875 874.114604 C605.002090 873.291972 599.428787 872.035990 593.782547 871.403910 C589.422684 870.915873 588.100418 869.502787 589.622818 865.545756 C597.391434 845.352519 612.646317 833.839823 633.010452 828.338481 C647.548721 824.410990 662.493668 823.199320 677.325516 824.585673 C688.965286 825.673686 700.953384 827.598612 711.773941 831.775492 C726.516495 837.466166 736.353409 849.438944 737.055862 865.561381 C738.326187 894.714579 737.861465 923.940409 738.399429 953.130717 C738.557327 961.697001 739.527176 970.258280 740.365433 978.798319 C740.933792 984.589335 740.442825 985.329081 734.470047 985.329447 C721.470535 985.330302 708.471024 985.334941 695.471512 985.327372 C690.250015 985.324198 689.200089 983.843241 690.436478 978.657694 C690.718216 977.476176 690.422318 976.156840 690.392349 974.900981 C689.234146 975.345072 687.948257 975.595805 686.936966 976.262675 C674.338333 984.572001 660.550247 988.617167 645.429398 988.364482 C634.651016 988.184428 624.004105 988.417216 613.537979 984.462382 C596.286697 977.943827 585.723953 966.446757 583.317581 947.919047 C583.010330 945.552714 582.654434 943.192729 582.321182 940.329814 M690.321182 920.829814 C690.687149 917.834208 688.998367 917.195536 686.452896 917.314555 C678.440140 917.689311 670.360550 917.483988 662.426834 918.469462 C653.973221 919.519755 645.457169 921.041483 638.263992 926.321757 C633.214737 930.028178 631.568863 935.088603 632.340836 941.070536 C632.980240 946.025004 635.779434 949.322245 640.486282 950.994608 C648.501419 953.842143 656.558731 953.264140 664.647598 951.334818 C679.496414 947.793192 691.159500 937.042216 690.321182 920.829814 z"/><path class="selected"  fill="#000000" opacity="1.000000" stroke="none" 
 	d="
M1527.571182 872.079814 C1529.321304 877.875102 1531.421646 883.339335 1532.182877 888.984233 C1533.372208 897.804179 1533.571060 906.753642 1534.361221 915.633036 C1534.691544 919.347148 1533.340591 920.418925 1529.635635 920.405253 C1495.136734 920.277812 1460.637100 920.329447 1426.137711 920.330180 C1419.759415 920.330302 1419.687515 920.820170 1421.249405 926.995707 C1424.513077 939.899760 1432.097916 948.327616 1445.345596 950.787211 C1460.463638 953.594218 1480.215469 949.011820 1486.321671 932.438700 C1487.790054 928.453349 1491.448746 929.971781 1493.545059 930.508891 C1505.093521 933.467387 1516.498428 936.987162 1527.946549 940.335429 C1531.432877 941.355204 1533.723526 942.490946 1530.572037 946.723979 C1525.318253 953.780497 1521.470596 962.077006 1515.448135 968.326029 C1504.514298 979.671610 1490.458633 986.032084 1474.836807 988.235331 C1466.354507 989.431742 1457.703384 990.500834 1449.185196 990.169291 C1425.808853 989.259013 1405.326675 981.195414 1390.226822 962.586161 C1381.995621 952.442118 1376.771133 940.594462 1374.361221 927.700541 C1371.493424 912.356791 1371.543106 897.191020 1375.079849 881.724711 C1378.589615 866.376322 1385.460587 853.350810 1396.634171 842.649882 C1407.520035 832.224833 1420.592545 825.600077 1435.603531 823.396220 C1442.770645 822.343974 1450.072037 821.201029 1457.259049 821.479472 C1478.520767 822.303813 1497.763321 828.770243 1512.375870 845.060404 C1519.272842 852.749125 1524.969376 861.441386 1527.571182 872.079814 M1423.821182 876.329814 C1422.999405 877.818217 1421.562882 879.292948 1421.529434 880.799052 C1421.496231 882.292948 1422.879898 885.132304 1423.635635 885.130107 C1432.975357 885.102763 1442.311295 884.524394 1451.652969 884.367533 C1461.625748 884.200053 1471.605240 884.419535 1481.576675 884.215556 C1482.812149 884.190287 1485.195816 882.186259 1485.060318 881.804423 C1482.238174 873.852397 1477.806168 867.066752 1469.845108 863.347880 C1461.368912 859.388285 1452.549576 859.605204 1443.572647 861.297221 C1434.690201 862.971171 1428.255386 867.696147 1423.821182 876.329814 z"/><path class="selected"  fill="#000000" opacity="1.000000" stroke="none" 
 	d="
M951.071182 850.079814 C960.166275 839.922709 970.232071 831.535746 983.030533 827.465312 C990.601578 825.057353 998.530899 823.214213 1006.423599 822.508647 C1018.998550 821.384989 1031.798965 821.836161 1043.657974 826.530619 C1051.657120 829.697245 1059.657730 833.828959 1066.328262 839.184794 C1080.940689 850.917338 1088.995499 867.006083 1092.199722 885.291117 C1093.887100 894.919779 1094.534317 904.752421 1095.241715 914.522563 C1095.670425 920.443583 1094.438980 921.322856 1088.173965 921.326762 C1073.012466 921.336039 1057.850967 921.329814 1042.689468 921.329814 C1023.862564 921.329814 1005.035416 921.378764 986.208878 921.293192 C981.863785 921.273417 981.154434 922.047465 982.063248 926.951151 C985.486343 945.420268 1001.945694 953.652079 1018.112930 952.159892 C1030.689590 950.999125 1041.703507 946.144389 1047.345596 933.466899 C1048.625504 930.590800 1050.259537 929.918681 1053.824600 931.094462 C1065.440445 934.925517 1077.271133 938.136820 1089.108902 941.245219 C1093.354263 942.360087 1093.403458 943.387919 1091.507217 947.317851 C1086.976334 956.707865 1081.064713 964.872782 1073.353531 971.763651 C1063.570816 980.505839 1052.053360 986.264628 1039.208145 988.123271 C1027.797501 989.774272 1016.088028 990.619120 1004.589371 990.094096 C989.362198 989.398783 975.411148 984.075419 963.064713 974.666239 C946.552872 962.082377 937.922379 944.666483 934.609268 925.094218 C930.767227 902.396830 933.023453 879.941752 944.839859 859.357401 C946.633194 856.233134 948.817642 853.333476 951.071182 850.079814 M1038.821182 869.329814 C1029.615738 861.872294 1019.450821 859.054301 1007.504532 861.184916 C995.228043 863.374369 986.782486 869.347880 982.778091 881.324565 C981.841324 884.126933 982.499161 885.342997 985.490128 885.339945 C1004.787003 885.320170 1024.083878 885.363505 1043.380386 885.281718 C1045.486954 885.272807 1047.371841 884.880229 1045.408707 881.762065 C1043.039322 877.998759 1041.321182 873.825663 1038.821182 869.329814 z"/><path class="selected"  fill="#000000" opacity="1.000000" stroke="none" 
 	d="
M909.071182 933.579814 C919.802506 935.454936 919.878433 935.481181 916.305557 945.834208 C908.546280 968.318217 892.210342 981.065409 869.818924 987.433329 C856.823807 991.129008 843.573685 991.229838 830.566177 990.056620 C810.694534 988.264140 792.911697 980.548808 779.598648 964.982279 C770.307144 954.117899 764.350296 941.358012 762.454422 927.161234 C761.101578 917.031474 759.823685 906.649638 760.575272 896.533671 C761.934891 878.235209 768.060013 861.517436 780.610062 847.395609 C792.747269 833.738383 808.123245 826.168437 825.621841 823.530619 C846.093460 820.444682 866.236649 821.849223 885.064713 832.249491 C901.550552 841.355815 911.577164 855.248149 917.089127 872.792216 C917.350601 873.624613 915.657974 875.906596 914.529678 876.204447 C907.286758 878.116801 899.949844 879.674906 892.638565 881.326151 C887.149796 882.565653 881.620804 883.644145 876.172440 885.039286 C873.014725 885.847880 871.321732 884.811869 870.300980 881.853495 C867.400040 873.446513 862.646744 866.283305 853.903030 863.430766 C835.803299 857.525736 818.942032 866.162089 813.326614 884.626811 C808.324722 901.074076 808.303238 917.695048 815.885025 933.047343 C824.754776 951.007304 843.118607 956.602641 861.192703 945.910014 C866.113236 942.999003 869.363297 938.538676 870.997452 933.089701 C872.137650 929.288188 873.220535 927.643900 878.053543 929.085551 C884.679642 931.062113 891.809219 931.376689 898.735611 932.309428 C902.082657 932.760356 905.458389 932.996562 909.071182 933.579814 z"/><path class="selected"  fill="#000000" opacity="1.000000" stroke="none" 
 	d="
M1915.321182 949.329814 C1926.295303 946.480937 1934.423965 941.194316 1937.563370 929.905375 C1937.933731 928.573832 1941.765030 927.200785 1943.753799 927.488993 C1955.305313 929.163554 1966.782364 931.346171 1978.293594 933.303935 C1979.427383 933.496684 1980.682022 933.097025 1981.776749 933.377543 C1984.142960 933.984110 1986.056046 935.076518 1985.022110 938.137431 C1981.114639 949.705912 1976.121719 960.615580 1966.998184 969.177348 C1956.641251 978.896830 1944.321671 984.862650 1930.488174 987.180399 C1921.732559 988.647563 1912.684219 989.601542 1903.853775 989.137187 C1884.659561 988.127665 1866.722794 983.337138 1851.958145 969.638529 C1839.021988 957.636088 1831.086319 943.127421 1828.478897 925.939799 C1826.947891 915.847758 1825.907852 905.447611 1826.562637 895.309794 C1827.669083 878.182353 1833.124161 862.396586 1844.285049 848.702494 C1856.970108 833.138163 1873.286026 824.931620 1892.831070 822.328471 C1912.854630 819.661601 1932.464493 820.653544 1950.647598 830.400126 C1967.118057 839.228983 1977.307022 853.484965 1983.233780 870.914774 C1983.997208 873.160014 1983.277969 874.865824 1979.915176 875.480082 C1967.913223 877.672343 1956.008194 880.413676 1944.100235 883.095683 C1939.832901 884.056742 1936.506973 882.795024 1935.379532 878.647318 C1932.281632 867.250224 1923.868301 861.865458 1913.223770 860.526591 C1900.474136 858.923319 1889.252335 862.820658 1883.119888 875.145365 C1872.709000 896.068705 1873.194229 916.943949 1885.403946 937.040263 C1890.353897 945.187480 1898.121964 949.288554 1907.816666 949.328349 C1910.151505 949.337992 1912.486221 949.329814 1915.321182 949.329814 z"/><path class="selected"  fill="#000000" opacity="1.000000" stroke="none" 
 	d="
M1803.321182 900.329814 C1803.321182 916.152690 1803.083267 931.480448 1803.407364 946.796488 C1803.613052 956.523295 1804.511002 966.244975 1805.370132 975.944926 C1805.971329 982.734110 1805.636368 983.329814 1798.831924 983.329814 C1785.840836 983.329814 1772.849747 983.329814 1759.858658 983.329814 C1752.226578 983.329814 1750.636368 981.343119 1752.308243 973.996684 C1752.727188 972.155497 1753.270767 970.279521 1753.277481 968.417826 C1753.348160 948.931498 1753.321182 929.444682 1753.321182 909.958109 C1753.321182 887.749613 1753.370255 865.540995 1753.276138 843.332987 C1753.259049 839.305888 1752.698990 835.276957 1752.306534 831.257060 C1752.012833 828.247660 1753.272965 827.256571 1756.269669 827.278300 C1771.591690 827.389628 1786.915421 827.395121 1802.237442 827.281596 C1805.838150 827.254862 1806.835587 828.210185 1805.407242 831.740214 C1804.597672 833.741191 1804.403214 836.087870 1804.360245 838.287089 C1803.960953 858.800395 1803.654556 879.315287 1803.321182 900.329814 z"/><path class="selected"  fill="#000000" opacity="1.000000" stroke="none" 
 	d="
M1753.571182 771.579814 C1755.347549 770.996562 1756.872330 770.382182 1758.400528 770.373759 C1772.048721 770.298319 1785.697403 770.322733 1799.345963 770.333354 C1804.678726 770.337504 1804.730728 771.080058 1804.449356 776.397196 C1803.984024 785.191264 1804.082779 794.039286 1804.453995 802.842875 C1804.617935 806.728861 1803.429825 809.288310 1799.673599 809.304301 C1785.026627 809.366679 1770.378311 809.396220 1755.733658 809.202006 C1754.583756 809.186747 1752.491470 807.377055 1752.469620 806.366068 C1752.232193 795.385722 1752.307388 784.398295 1752.363663 773.413188 C1752.366348 772.883769 1752.987808 772.357524 1753.571182 771.579814 z"/></svg>