<svg xmlns="http://www.w3.org/2000/svg" viewBox="0 0 200 130" width="200" height="130">
  <!-- Leaf outline -->
  <path d="M100 20 C120 25, 140 40, 145 60 C150 80, 140 100, 120 110 C100 120, 80 110, 75 90 C70 70, 80 50, 100 20 Z" 
        fill="none" 
        stroke="#2ecc71" 
        stroke-width="3" 
        stroke-linecap="round" 
        stroke-linejoin="round"/>
  
  <!-- Central stem -->
  <path d="M100 25 L100 105" 
        fill="none" 
        stroke="#2ecc71" 
        stroke-width="2" 
        stroke-linecap="round"/>
  
  <!-- Circuit-like elements - horizontal lines -->
  <path d="M85 35 L115 35" 
        fill="none" 
        stroke="#2ecc71" 
        stroke-width="1.5" 
        stroke-linecap="round"/>
  <path d="M80 50 L120 50" 
        fill="none" 
        stroke="#2ecc71" 
        stroke-width="1.5" 
        stroke-linecap="round"/>
  <path d="M85 65 L115 65" 
        fill="none" 
        stroke="#2ecc71" 
        stroke-width="1.5" 
        stroke-linecap="round"/>
  <path d="M80 80 L120 80" 
        fill="none" 
        stroke="#2ecc71" 
        stroke-width="1.5" 
        stroke-linecap="round"/>
  <path d="M85 95 L115 95" 
        fill="none" 
        stroke="#2ecc71" 
        stroke-width="1.5" 
        stroke-linecap="round"/>
  
  <!-- Circuit nodes (small circles) -->
  <circle cx="85" cy="35" r="2" fill="#2ecc71"/>
  <circle cx="115" cy="35" r="2" fill="#2ecc71"/>
  <circle cx="80" cy="50" r="2" fill="#2ecc71"/>
  <circle cx="120" cy="50" r="2" fill="#2ecc71"/>
  <circle cx="85" cy="65" r="2" fill="#2ecc71"/>
  <circle cx="115" cy="65" r="2" fill="#2ecc71"/>
  <circle cx="80" cy="80" r="2" fill="#2ecc71"/>
  <circle cx="120" cy="80" r="2" fill="#2ecc71"/>
  <circle cx="85" cy="95" r="2" fill="#2ecc71"/>
  <circle cx="115" cy="95" r="2" fill="#2ecc71"/>
  
  <!-- Central node -->
  <circle cx="100" cy="60" r="3" fill="#2ecc71"/>
</svg>